<svg xmlns="http://www.w3.org/2000/svg" viewBox="0 0 171 340"><g fill="#5078A0"><path d="M70 267.5c-22.3 0-33 13-33 35 0 24.4 13 37.5 33.5 37.5 26.8 0 35-9.6 35-37.5 0-24-10.5-35-35.5-35zm0 10c19.4 0 25.5 6.4 25.5 25v4.5l-.1 1.2c-.7 17.3-5.5 21.5-23 21.8h-1.9c-15 0-23.5-8.6-23.5-27.5 0-16.8 6.7-25 23-25zM77.7 186.5l3.8-3.3.9-.8.8-.7.8-.8.8-.8c.2 0 .3-.2.4-.3l.8-.8c9.1-9.1 13-17.6 13-31.2 0-12.6-11.3-22.3-25.3-25-14.7-2.7-27.2 3.4-27.2 17.2v7.1l-.1.8v2l-.1.7v.7l-.1.7v.6l-.1.6-.1.6v.3l-.1.6v.2l-.1.5-.1.5-.1.5-.1.4v.3l-.2.4-.2.6-.1.3-.1.4-.1.2-.2.3-.1.3-.2.3-.1.3-.1.2c-1.6 2.5-4.6 4-10.3 4.4H33c-1.2.2-2.5.2-4 .2-7.8 0-12-3-14.4-9.4l-.2-.6-.2-.5-.2-.6-.2-.7-.2-.6-.4-2-.2-.6v-.7l-.2-.7-.1-.8-.1-.7v-.8l-.1-.4-.1-.8v-.9l-.1-.9v-.9l-.1-.9v-1l-.1-1v-3.8L12 134v-2.2c0-33.2 18-49.9 48.4-49.2h1.1c16.2 0 35.5 7.4 50.8 19.5 16.1 12.8 25.7 28.8 25.7 44.5v4.9l-.1.5v1.2a43 43 0 01-9.2 26.2l-.6.7-1.2 1.5-.6.7-.7.7-.6.8-.7.7-.7.7-5.7 6a97 97 0 00-22 35.1l-.2.4-.2.6-.3.8-.2.7-.7 2.2-.8 2.5-.3 1-.2.8-.3.8-.3.8-.1.3c-3.6 9.5-8.9 13.9-20.8 13.9-7.8 0-13.8-1.3-17.3-4.1-3.9-3.1-5-8.4-2.5-17.3l.2-.6v-.3c3.4-17 9.6-27.3 20.3-37.3l.8-.7 1.6-1.5 3-2.7zm-2.4-11.2l-5.2 4.6-2 1.7-1.4 1.2-.8.8-.5.5a73 73 0 00-23.1 42l-.2.5.1-.2c-3.8 12.7-1.7 22.4 5.8 28.3 5.6 4.5 13.6 6.3 23.5 6.3 16.4 0 25.2-7.2 30.1-20.4l1-2.7.3-1 1.4-4.4.2-.7.2-.7.2-.5.2-.6v-.2a87 87 0 0119-30.7l1.3-1.4 5.7-6h.1l.8-.9.7-.8a90 90 0 001.8-2l.7-.9.6-.8.7-.8.6-.8c6.8-9 10-18.3 10.8-32.3V150v-2l.1-1.4c0-19.1-11.2-37.8-29.5-52.3l-.6-.5a97.2 97.2 0 00-55.7-21.2h-.6C25.3 71.3 2 92.3 2 131.7v7.9l.1 1.1v1.1l.1 1v.6l.1 1v1l.2 1v1.4l.2.8.1.9.1.8.1.5.1.8 1 3.9.1.8 1 3C9.3 169.2 17 175 29 175s19.5-2.7 23.6-9.4l.1-.2.3-.5.3-.5.2-.5.3-.5.4-1 .2-.5.5-1.4.1-.5.3-1v-.5l.4-2 .1-.7.1-.7v-.4l.2-.7v-1.6l.1-.9.1-.8v-1l.1-1.4V143l.1-1.8V140c0-6.1 6-9.1 15.3-7.3 9.8 1.8 17.2 8.1 17.2 15 0 10.6-2.7 16.7-9.8 24l-.7.7-1.6 1.4-.8.8-.8.7zM13.6 13.5c-.4.5-.7 1.3-1 2.4l-.2.5-.2.6-.1.6-.1.6-.2.6-.1 1-.1.8-.1.7-.1.8-.1.8v.8l-.1.8v.9l-.1.4v2.3l-.1 1.3v3.3l.1 1v1l.1.4v1l.2 1v1l.2.8v1l.2.9.1.9.2.9.1.8.1.4.2.9.2.8c0 .2 0 .5.2.7l.1.8.1.4.2.7.1.3.2.7c1.1 3.4 2.4 5.7 3.6 6.6 8 5.4 16.3 5 22.6-1.4 6.8-7 9.8-29.9 5-38.6-1.5-3-7.6-5.3-15.3-5.7-2.7 0-5.4 0-7.7.4l-.7.1-2 .4-.5.2c-2.3.5-4 1.3-4.8 2.1v.1l-.2.2zM6.1 6.9c4.1-5 13.7-7.3 23.8-6.9 10.9.5 20 4 23.8 11 6.8 12.5 3.2 40.2-6.8 50.3-9.8 10-23.4 10.7-35.3 2.7-4.8-3.3-8-10.7-9.5-20.3L2 42.6l-.1-1.1-.1-1.1-.2-1.7-.1-1.2-.2-1.7C.4 23.5 2 12.2 6 7.1L6 7zM77.9 23.6a12 12 0 00-3.2 4.5l-.3.6c-.8 1.7-1.6 3.8-2.2 6a28.2 28.2 0 00-.6 15.7c2.7 7 7.4 9.3 11.8 7 3-1.6 6.3-6.4 8.7-11.8l.3-.8c2-4.6 3.3-9.7 3.3-13.7 0-5.8-10.8-11.2-17.5-7.7l-.2.1-.1.1zm-4.4-9c13-7 32.2 2.7 32.2 16.5 0 12.2-8 30-17.7 35.1-10.1 5.4-21 0-25.7-12.2-4.5-11.6 1.5-33.5 10.5-39l.3-.2.4-.2zM100 62.3c.3-11 10.2-24.5 20.3-23 6.2.9 10.4 4 12.4 9a23.9 23.9 0 01.7 13.8l-.1.7-.2.7-.1.7-.2.7c-2.5 9-8.9 15.5-18.5 14.1A15.9 15.9 0 01100 62.3zm18.8-13.1c-1.1 0-3 1.2-5 4-2.2 3-3.7 6.8-3.8 9.4-.1 3.8 2.1 6 5.7 6.5 4 .6 7.1-3.3 8-9.7l.1-.7v-.4l.1-.6c.5-5.5-.7-7.8-4.7-8.5h-.4zM142 79.3s-.3 0-.6.3l-1.8 1.6a8 8 0 00-1.8 4V86.2c.1.7.4.9 1 1h.5c1.7 0 4.5-3.1 4.5-5.4v-.8-.5c-.1-1-.4-1.3-1.2-1.3h-.5zm.5-10c7.3.1 11.3 5.1 11.3 12.6 0 7.6-7 15.4-14.5 15.4-7.3 0-11.5-5-11.5-12.2 0-7 6.8-15.6 14-15.8h.7zM158.6 92.8h.3c5.7 0 11.1 3.8 11.1 9.4 0 8-4.5 14.6-12.8 14.6-5.6 0-10.2-6.4-10.2-12 0-7.5 4.6-11.9 11.3-12h.3zm.2 10h-.8c-.7 0-.9.2-1 1v1c0 .4.3 1.1.7 1.7v.1h.2c1.2-.3 1.9-1.4 2-3.3v-.2c-.3-.2-.7-.3-1-.3z"/></g></svg>
