<?xml version="1.0" encoding="UTF-8"?>
<svg width="43px" height="43px" viewBox="0 0 43 43" version="1.1" xmlns="http://www.w3.org/2000/svg" xmlns:xlink="http://www.w3.org/1999/xlink">
    <title>Group 9 Copy 3</title>
    <defs>
        <polygon id="path-1" points="0.0001 0.0171180086 12.8111 0.0171180086 12.8111 22.5492182 0.0001 22.5492182"></polygon>
    </defs>
    <g id="Page-1" stroke="none" stroke-width="1" fill="none" fill-rule="evenodd">
        <g id="Mock-up-for-Ecoalf-Jacket-[one-colour-item-so-no-colour-selector]" transform="translate(-129.000000, -1418.000000)">
            <g id="Group-9-Copy-3" transform="translate(129.000000, 1418.000000)">
                <circle id="Oval-5-Copy-2" fill="#54add3" fill-rule="nonzero" cx="21.5" cy="21.5" r="21.5"></circle>
                <g id="Group-14" transform="translate(15.000000, 7.000000)">
                    <g id="Group-3" transform="translate(0.000000, 6.811561)">
                        <mask id="mask-2" fill="white">
                            <use xlink:href="#path-1"></use>
                        </mask>
                        <g id="Clip-2"></g>
                        <path d="M5.9221,22.2848347 C5.8036,22.2271281 5.6851,22.1694215 5.56635,22.1119573 C5.46085,22.0443097 5.3551,21.976662 5.24985,21.9087719 C4.8441,21.595265 4.50235,21.2259913 4.2206,20.8041027 C4.11985,20.6181322 4.01935,20.4319193 3.91835,20.2461914 C3.9041,20.2100641 3.8896,20.1741794 3.87535,20.1380521 C3.80235,19.9212887 3.72935,19.7040403 3.65635,19.4872768 L3.5456,18.8316522 C3.53785,18.6119792 3.52985,18.3920637 3.5216,18.1723907 C3.52785,17.9524752 3.52785,17.7328022 3.4856,17.5153113 C3.48585,17.2936986 3.4556,17.0754803 3.4086,16.8587169 C3.3541,16.4108846 3.2546,15.9729933 3.11035,15.5443157 C2.9776,15.0453233 2.8021,14.5611213 2.5656,14.0989835 C2.5076,13.9142254 2.4186,13.7425604 2.3246,13.5728351 C2.1136,13.1097275 1.87535,12.6599555 1.62385,12.2164875 C1.40935,11.7912044 1.1951,11.3661638 0.98035,10.9411231 C0.8061,10.5032319 0.6321,10.0655831 0.45785,9.62793425 L0.2651,8.97012749 C0.2191,8.75142432 0.1731,8.53247868 0.12685,8.31377551 C0.0991,8.09531481 0.0716,7.87636917 0.0436,7.657666 C0.0291,7.43799298 0.0146,7.21807748 0.0001,6.99840445 C0.0031,6.77994375 0.0061,6.56099811 0.00935,6.34253741 C0.02385,6.12286438 0.0386,5.90319135 0.0531,5.68376079 C0.0936,5.46602748 0.13385,5.24829416 0.1741,5.03056085 C0.2466,4.81016043 0.31885,4.58951754 0.3911,4.36887465 C0.43035,4.27795039 0.46985,4.18726859 0.50935,4.09634432 L0.7136,3.71640212 C0.86885,3.49624416 1.0241,3.27632866 1.17935,3.05617071 C1.39585,2.83722507 1.61185,2.6185219 1.8281,2.3993338 C1.8616,2.38939275 1.88585,2.36902571 1.90135,2.33847516 C2.3121,2.01187519 2.75035,1.72479697 3.21035,1.46802684 C3.65385,1.24714149 4.1096,1.05389712 4.5726,0.875443088 C4.79635,0.801248886 5.02035,0.727297149 5.24385,0.653345412 C5.6961,0.543508898 6.14835,0.433672383 6.6006,0.323835869 C6.8281,0.291103133 7.05635,0.260552579 7.27835,0.198239148 C7.5076,0.194117248 7.7306,0.144654447 7.9566,0.114831287 C8.1816,0.0927669987 8.40685,0.0704602452 8.6321,0.0481534917 C8.85885,0.0377275091 9.0856,0.0275439913 9.3126,0.0171180086 C9.5381,0.0319083561 9.76335,0.0464562388 9.98885,0.0612465862 C10.21485,0.104890234 10.4411,0.148776347 10.6671,0.19266246 C11.16935,0.342505652 11.63235,0.562906075 12.02385,0.909630613 C12.0901,0.980187844 12.15635,1.05050261 12.2226,1.12081738 C12.5156,1.50172944 12.68535,1.93258923 12.7711,2.39739408 C12.78435,2.61682465 12.79785,2.83625521 12.8111,3.05568578 C12.78985,3.27438895 12.7686,3.49284965 12.7476,3.71131036 C12.6506,4.17732753 12.4816,4.61715852 12.23385,5.02765128 C12.16185,5.13336589 12.08985,5.23859558 12.0176,5.34431019 L11.7371,5.67891149 C11.6061,5.81178215 11.4751,5.94465282 11.3441,6.07776594 C11.2411,6.15511219 11.1456,6.23973237 11.0621,6.33720318 C10.9201,6.43782604 10.79185,6.55348171 10.6681,6.67422913 C10.53235,6.77169995 10.40335,6.8764447 10.28785,6.99646474 C10.17535,7.06920415 10.07535,7.15600652 9.98585,7.25420472 C9.8251,7.37349736 9.67835,7.50685295 9.5466,7.65572629 C9.4556,7.72119176 9.3781,7.79950786 9.31235,7.88873487 C9.17985,8.00414808 9.06835,8.13677627 8.9671,8.27789074 C8.79935,8.46143652 8.6686,8.66971371 8.5476,8.88332512 C8.4131,9.12021315 8.2831,9.35952582 8.22385,9.62793425 C8.13435,9.83912102 8.0846,10.0595214 8.06285,10.2862259 C8.01435,10.5025045 7.9961,10.7214501 8.00385,10.9423355 C7.98085,11.1637057 8.0016,11.3826514 8.03785,11.6011121 C8.05985,11.8266043 8.10385,12.0472471 8.1941,12.2574641 C8.33935,12.74894 8.5981,13.1807697 8.92785,13.5755022 C9.03735,13.7430453 9.1646,13.896768 9.31035,14.0359427 C9.35385,14.1118342 9.41235,14.1753599 9.4821,14.2294296 C9.6391,14.425341 9.8081,14.6108265 9.98985,14.7849162 C10.02135,14.8431077 10.0641,14.8916007 10.1176,14.9313649 C10.4596,15.3374933 10.7901,15.751623 11.06185,16.2067293 C11.14585,16.3798491 11.22935,16.5532113 11.31335,16.7268161 C11.33035,16.7728844 11.3471,16.8189527 11.36385,16.8647785 C11.42585,17.0822693 11.48785,17.2992753 11.5496,17.5167661 C11.5766,17.7352268 11.6036,17.9541725 11.6306,18.1728756 C11.6296,18.3925487 11.62885,18.6124641 11.62785,18.8323796 C11.60235,19.0510828 11.5766,19.2695435 11.5511,19.4884891 L11.3891,20.1470233 C11.3636,20.2233997 11.3381,20.2997761 11.3126,20.3766374 C11.2456,20.5192066 11.1786,20.6620184 11.11185,20.8048301 C10.97085,21.0264428 10.8211,21.2419939 10.6466,21.4405725 L10.64585,21.4412999 C10.26685,21.8205147 9.81135,22.0828616 9.30585,22.2693169 C8.74235,22.437345 8.16535,22.5212378 7.57685,22.5452418 C7.00585,22.5685184 6.45385,22.4909297 5.9221,22.2848347" id="Fill-1" fill="#FFFFFF" mask="url(#mask-2)"></path>
                    </g>
                    <path d="M11.750725,0.0366121715 C12.069475,-0.00872872962 12.387225,-0.0266711183 12.700225,0.0720120194 C12.965975,0.200760781 13.183725,0.38648875 13.374975,0.604464526 C13.388725,0.624104168 13.402475,0.64374381 13.416225,0.663140987 C13.549725,0.871903103 13.650975,1.0959405 13.748975,1.32143268 C13.796975,1.54013585 13.844475,1.75908148 13.892225,1.97778465 C13.900725,2.19721522 13.908725,2.41664578 13.916975,2.63656128 C13.887725,2.85526445 13.858475,3.07421008 13.828975,3.29315571 C13.766975,3.51137396 13.704975,3.7295922 13.642975,3.94781044 C13.609725,4.01691288 13.576975,4.08601532 13.543225,4.15463284 C13.224975,4.80298347 12.783725,5.31943331 12.021475,5.49255311 C11.791975,5.51001057 11.566725,5.4864915 11.344725,5.42975475 C11.233225,5.37423034 11.121475,5.31870592 11.009975,5.26342396 C10.896475,5.1635285 10.782975,5.06314811 10.669475,4.96325265 C10.587225,4.84492987 10.504975,4.72660709 10.422725,4.60828431 C10.315975,4.39588522 10.236975,4.17330262 10.157975,3.95047755 C10.007975,3.29097353 10.027225,2.63389416 10.187475,1.97875451 C10.269225,1.75980888 10.351225,1.54110571 10.432975,1.32240254 C10.662225,0.901241333 10.943725,0.52178406 11.344475,0.235918165 C11.479975,0.169482833 11.615475,0.103047502 11.750725,0.0366121715" id="Fill-4" fill="#FFFFFF"></path>
                    <path d="M6.873525,1.9791667 C6.997275,1.8266564 7.125775,1.67875292 7.278275,1.55194388 C7.436025,1.4583525 7.604525,1.38973499 7.785775,1.35215296 L7.922025,1.35215296 C8.334025,1.4212554 8.622775,1.66081054 8.852775,1.98231874 C8.975275,2.18962607 9.060025,2.41196621 9.134275,2.63867072 C9.164275,2.8559191 9.186275,3.07413734 9.18554361,3.2935679 C9.160525,3.51445326 9.116775,3.7319441 9.058025,3.94628291 C8.970275,4.17662438 8.855275,4.3936303 8.724775,4.60336228 C8.680525,4.65840177 8.635775,4.71319879 8.591275,4.76823828 C8.565775,4.78957518 8.539025,4.80921482 8.515025,4.8320065 C7.867275,5.44786687 7.282775,5.32590712 6.793775,4.62712382 C6.771525,4.59536094 6.754525,4.56044602 6.734275,4.52771329 C6.624275,4.34731954 6.566525,4.14655876 6.498525,3.95040481 C6.467525,3.73242903 6.452025,3.5134834 6.454025,3.2935679 C6.492275,3.07437981 6.530275,2.85494924 6.568525,2.63576114 C6.605775,2.5749025 6.624275,2.5082247 6.635275,2.4388798 C6.714525,2.2856421 6.794275,2.1324044 6.873525,1.9791667" id="Fill-6" fill="#FFFFFF"></path>
                    <path d="M4.567375,2.38975645 C5.027875,2.41279059 5.280875,2.69356473 5.459125,3.06574806 C5.494625,3.13994226 5.523375,3.21680358 5.555375,3.29245257 C5.606625,3.50921602 5.640125,3.72864658 5.656125,3.95050179 C5.649125,4.17162961 5.617625,4.38960539 5.580875,4.6073387 C5.497875,4.84034729 5.397375,5.06535454 5.245625,5.26538793 L5.245375,5.26587286 C5.058875,5.45135836 4.842375,5.57792494 4.567875,5.59101803 C4.275125,5.58107698 4.079125,5.41062429 3.906625,5.20816625 C3.757625,5.03310673 3.683875,4.81973779 3.609375,4.60830856 C3.560875,4.39106018 3.545625,4.16968989 3.529375,3.94856208 C3.549125,3.72913151 3.576875,3.51091327 3.627875,3.29584707 C3.698875,3.13776008 3.756125,2.97336901 3.859125,2.82958743 C4.032625,2.58760765 4.254375,2.42006453 4.567375,2.38975645" id="Fill-8" fill="#FFFFFF"></path>
                    <path d="M1.27905,5.92254003 C1.4753,6.10341871 1.5783,6.33327526 1.64805,6.58107419 C1.66455,6.80050476 1.6618,7.018723 1.6083,7.23403166 C1.5383,7.3821776 1.47555,7.53347558 1.35855,7.65616272 C1.1148,7.91244792 0.81655,7.91632736 0.56655,7.66755856 C0.44155,7.5436591 0.37705,7.38751182 0.3038,7.23500152 C0.25355,7.018723 0.2473,6.80026229 0.26505,6.5803468 C0.3258,6.3810408 0.3988,6.18706904 0.53255,6.02025331 C0.55505,5.9977041 0.57755,5.97491241 0.6003,5.95236319 C0.77455,5.81634049 0.9648,5.77148452 1.17805,5.8568321 C1.21155,5.87865392 1.2453,5.90071821 1.27905,5.92254003" id="Fill-10" fill="#FFFFFF"></path>
                    <path d="M1.553225,4.60864801 C1.629725,4.44740897 1.680975,4.2747741 1.826975,4.14966231 C2.046475,3.96175216 2.310475,3.91325921 2.576725,4.04006826 C2.983475,4.23428249 3.176725,4.58197689 3.276725,4.99052993 C3.298475,5.08048434 3.310725,5.17262093 3.327475,5.26378766 C3.342725,5.48564287 3.322225,5.70483097 3.276725,5.92207935 C3.242975,5.9986982 3.208975,6.07531705 3.175225,6.1519359 C2.757975,6.63250096 2.282725,6.62159004 1.867725,6.12090042 C1.815225,6.05737466 1.768975,5.98875715 1.719725,5.92256428 C1.622725,5.71186245 1.565225,5.49000724 1.518475,5.26475752 C1.510975,5.04532695 1.512725,4.82589639 1.553225,4.60864801" id="Fill-12" fill="#FFFFFF"></path>
                </g>
            </g>
        </g>
    </g>
</svg>