<svg width="232" height="70" xmlns="http://www.w3.org/2000/svg"><g fill="none" fill-rule="evenodd"><path d="M171.512 53.64c0 3.91.092 8.675-2.155 10.966-1.697 1.708-3.899 2.338-6.422 2.338h-7.108V41.056h7.108c2.523 0 4.725.629 6.422 2.337 2.247 2.292 2.155 6.337 2.155 10.247zm3.486 0c0-4.449.184-9.348-3.21-12.674-1.972-1.933-4.862-2.966-8.256-2.966H152.34v32h11.192c3.394 0 6.284-1.035 8.255-2.967 3.395-3.325 3.211-8.943 3.211-13.393zM123.302 38l17.339 25.573V38h3.485v32h-3.302l-17.338-25.663V70H120V38h3.302zM52.09 38c4.086 0 6.78 1.017 9.518 3.448l-2.2 2.167c-1.975-1.77-4.086-2.697-7.453-2.697-4.265 0-6.734 2.342-6.734 5.834 0 1.548.448 2.784 1.436 3.624.988.84 2.649 1.46 4.31 1.724l3.502.53c3.008.443 4.49 1.06 5.837 2.21C62.057 56.3 63 58.464 63 61.072 63 66.597 58.6 70 51.955 70 47.15 70 44.009 68.806 41 65.846l2.334-2.298c2.65 2.607 5.119 3.446 8.711 3.446 4.669 0 7.542-2.165 7.542-5.833 0-1.636-.493-3.05-1.525-3.934-1.033-.883-1.841-1.15-4.177-1.503l-3.726-.574c-2.514-.398-4.49-1.194-5.882-2.388-1.616-1.414-2.424-3.358-2.424-5.877 0-5.348 3.906-8.885 10.237-8.885zM89 38v3.056h-9.286V70h-3.427V41.056H67V38h22zm143-14.928c0-2.608-.958-4.773-2.738-6.232-1.367-1.149-2.874-1.768-5.93-2.21l-3.56-.53c-1.688-.266-3.376-.885-4.38-1.725-1.005-.84-1.46-2.076-1.46-3.624 0-3.492 2.51-5.835 6.844-5.835 3.423 0 5.567.93 7.574 2.697l2.236-2.166C227.802 1.016 225.066 0 220.913 0c-6.433 0-10.403 3.536-10.403 8.884 0 2.519.822 4.464 2.464 5.878 1.413 1.194 3.422 1.99 5.977 2.387l3.787.575c2.373.354 3.194.618 4.243 1.503 1.05.883 1.551 2.298 1.551 3.934 0 3.668-2.92 5.833-7.665 5.833-3.65 0-6.16-.84-8.851-3.447l-2.373 2.299C212.7 30.807 215.894 32 220.776 32 227.529 32 232 28.597 232 23.072zM199.381 9.06c0 3.846-2.69 5.746-6.478 5.746h-8.669V3.27h8.669c3.787 0 6.478 1.945 6.478 5.79zm4.108 22.675l-7.711-14.276c4.197-.84 7.071-3.846 7.071-8.443 0-5.437-3.968-8.751-9.626-8.751h-12.456v31.47h3.467V17.767h7.801l7.393 13.968h4.061zm-30.967 0V28.73h-16.7V17.37h14.235v-3.005H155.82V3.27h16.7V.265h-20.167v31.47h20.168zm-30.164 0V.265h-3.467v14.1h-15.423V.265H120v31.47h3.468V17.371h15.423v14.364h3.467zM80.525 16c0 6.586-.229 8.707-2.286 10.741-1.418 1.414-3.474 2.253-5.624 2.253-2.149 0-4.206-.84-5.624-2.253-2.058-2.034-2.286-4.155-2.286-10.741 0-6.586.228-8.707 2.286-10.74 1.418-1.415 3.475-2.256 5.624-2.256 2.15 0 4.206.841 5.624 2.255C80.296 7.293 80.525 9.414 80.525 16zM84 16c0-6.674 0-9.767-3.063-12.73C78.742 1.148 75.861 0 72.615 0c-3.246 0-6.127 1.148-8.321 3.27C61.23 6.233 61.23 9.326 61.23 16s0 9.768 3.064 12.73c2.194 2.122 5.075 3.27 8.321 3.27 3.246 0 6.127-1.148 8.322-3.27C84 25.768 84 22.674 84 16zM49.828 9.06c0 3.846-2.698 5.746-6.493 5.746h-8.687V3.27h8.687c3.795 0 6.493 1.945 6.493 5.79zm4.115 22.675L46.215 17.46c4.207-.84 7.088-3.846 7.088-8.443 0-5.437-3.978-8.751-9.648-8.751H31.173v31.47h3.475V17.768h7.819l7.407 13.967h4.069zm-35.06-8.795c0 3.535-2.515 5.79-6.538 5.79h-8.87V17.193h8.87c4.023 0 6.538 2.21 6.538 5.747zM18.38 8.707c0 3.757-2.789 5.481-6.401 5.481H3.475V3.27h8.504c3.612 0 6.401 1.68 6.401 5.437zm3.978 14.321c0-3.757-2.195-6.364-5.304-7.47 2.743-.972 4.8-3.58 4.8-6.895 0-5.26-3.931-8.398-9.6-8.398H0v31.47h12.664c5.762 0 9.694-3.005 9.694-8.707z" fill="#234766"/><path d="M102.44 38L114 70h-3.588l-9.344-27.101L91.588 70H88l11.605-32h2.835zM4.872 38l3.212 13.705L11.714 38h1.572l3.629 13.705L20.128 38H22l-4.208 17h-1.64l-3.653-13.61L8.85 55H7.205L3 38h1.872zM35 38v1.625h-8.28v5.993h7.058v1.622H26.72v6.136H35V55H25V38h10zm79-38v3.056h-10.78V32h-3.439V3.056H89V0h25z" fill="#54ADD3"/></g></svg>
